<svg xmlns="http://www.w3.org/2000/svg" xmlns:xlink="http://www.w3.org/1999/xlink" version="1.1" id="Layer_1" x="0px" y="0px" style="enable-background:new 0 0 1700.8 404.5;" xml:space="preserve" viewBox="253.91 100.76 1192.99 202.94">
<style type="text/css">
	.st0{fill:#6B58A2;}
	.st1{fill:#EF81B2;}
	.st2{fill:none;stroke:#6A58A1;stroke-width:8.4644;stroke-linecap:round;stroke-miterlimit:10;}
	.st3{fill:none;}
	.st4{fill:#6A58A1;}
</style>
    <g>
	<path class="st0" d="M441.6,303.7V145H462v18.3h0.4c10.1-14.4,25.3-21.5,42.3-21.5c35.4,0,61.7,27.5,61.7,64.2   c0,33.5-26,61-60.1,61c-18,0-34.2-7.3-41.9-20.2H464v56.9H441.6z M544.1,204.7c0-21.7-17.2-42.5-41-42.5c-22.3,0-39.5,20-39.5,42.1   c0,23.2,17.2,42.3,40.4,42.3C526.9,246.6,544.1,227.5,544.1,204.7z"/>
        <path class="st0" d="M576.6,264V145h20.8v10.7h0.4c5.4-7.9,14.6-13.1,30.3-14v23c-19.3,0.6-29.2,12.5-29.2,32.4V264H576.6z"/>
        <path class="st0" d="M656.1,214.1c5.2,19.8,20.8,32.4,39.1,32.4c14,0,27.1-7.3,33.9-20h22.3c-9.2,24.5-31.6,40.4-57.1,40.4   c-33.5,0-60.6-29.6-60.6-61.4c0-37.6,28.4-63.8,59.9-63.8c35,0,61.7,27.1,61.7,61.2c0,3.7,0,7.1-0.6,11.2H656.1z M733,197   c-1.7-20.2-19.5-34.8-38.7-34.8c-18.3,0-36.5,14.4-38.2,34.8H733z"/>
        <path class="st0" d="M763.2,264v-17.4l57.1-81.2h-51.6V145h76v21.7l-53.9,76.9h58.4V264H763.2z"/>
        <path class="st0" d="M857.2,264v-17.4l57.1-81.2h-51.6V145h76v21.7l-53.9,76.9h58.4V264H857.2z"/>
        <path class="st0" d="M981.3,303.7l17.4-42.1L951.2,145h24.1l35,92.4l35.9-92.4h24.1l-65.7,158.7H981.3z"/>
        <path class="st0" d="M1078.1,264V105h22.3v56.5h0.4c9.7-13.1,24.7-19.8,40.8-19.8c33.7,0,61.7,28.4,61.7,62.7   c0,33.3-26.2,62.5-59.7,62.5c-17.2,0-33.1-6.9-43-20.2h-0.4V264H1078.1z M1181,204.5c0-22.6-17.8-42.3-40.8-42.3   c-22.1,0-40.4,19.3-40.4,41.9c0,23.6,17.8,42.5,40.6,42.5C1162.3,246.6,1181,227.7,1181,204.5z"/>
        <path class="st0" d="M1274.6,267c-33.5,0-63.4-28.6-63.4-62.1c0-36.3,28.6-63.2,65.1-63.2c32.9,0,63.8,25.8,63.4,63.6   C1339.2,237.1,1312.6,267,1274.6,267z M1275.2,162.2c-22.3,0-41.7,18.9-41.7,42.1c0,22.6,18.7,42.3,41.2,42.3   c23.4,0,42.5-18.5,42.5-42.5C1317.3,180.8,1298.6,162.2,1275.2,162.2z"/>
        <path class="st0" d="M1420.6,264l-29.4-42.3l-28.8,42.3h-26l41.2-61l-39.7-58h27.1l26.2,39.1l26-39.1h27.1l-38.9,58l41.5,61H1420.6   z"/>
        <path class="st1" d="M304.2,156.1l-36.6,8.1c-9.4,2.1-15.3,11.4-13.3,20.8l8.1,36.6l53.7-11.9L304.2,156.1z"/>
        <path class="st1" d="M265.1,233.6l8.1,36.6c2.1,9.4,11.4,15.3,20.8,13.3l36.6-8.1l-11.9-53.7L265.1,233.6z"/>
        <path class="st1" d="M352.8,145.4l-36.6,8.1l11.9,53.7l53.7-11.9l-8.1-36.6C371.5,149.3,362.2,143.3,352.8,145.4z"/>
        <path class="st1" d="M392.4,243.9l-8.1-36.6l-53.7,11.9l11.9,53.7l36.6-8.1C388.6,262.6,394.5,253.3,392.4,243.9z"/>
        <path class="st2" d="M301,128.9"/>
        <path class="st3" d="M269.5,129.5c3.9,2.8,10.2,2.7,19.3-0.3c2.2-0.7,3.9-1.3,5.4-1.7l-4-5.6c-2.8-3.9-8.2-6.8-13.4-6.8   c-1.8,0-3.7,0.4-5.4,1.2c-1.8,0.8-3,2-3.8,3.4C265.7,123.2,266.5,127.5,269.5,129.5z"/>
        <path class="st3" d="M335,126.8c2.9-2,5.9-5.8,4.8-9.8c-0.6-2.1-1.9-5-4.9-6.6c-7.7-4-16.9,3.3-21.2,9.2l-5.8,7.9l4.4,1.4   C320.6,131.7,329.1,130.9,335,126.8z"/>
        <path class="st4" d="M264.7,136.5c3.8,2.6,8.2,3.5,12.4,3.5c5.1,0,9.8-1.3,12.7-2.2c-4.8,6-10.1,8.2-16.8,9.6   c-2.3,0.5-3.7,2.8-3.2,5c0.4,2,2.2,3.3,4.1,3.3c0.3,0,0.6,0,0.9-0.1c7.7-1.7,15.9-4.6,23-14.3l3.2-4.4l5.1,7.1   c5.7,7.9,18.3,21.1,38.1,21.1c2.3,0,4.2-1.9,4.2-4.2s-1.9-4.2-4.2-4.2c-16.1,0-26.5-11.1-31.2-17.6l-1-1.4   c10.1,2.7,20.4,1.2,27.9-4c6.8-4.7,10-12.2,8.1-19c-1.5-5.4-4.7-9.5-9.2-11.8c-11.7-6.1-24.8,1.8-31.9,11.7l-5.8,7.9l-4-5.6   c-6.7-9.3-19.6-12.9-29.2-8.3c-3.4,1.6-6,4-7.6,7C256.2,123,258.2,132,264.7,136.5z M313.6,119.6c4.3-5.9,13.5-13.2,21.2-9.2   c3,1.6,4.3,4.4,4.9,6.6c1.1,4-1.9,7.7-4.8,9.8c-5.9,4.1-14.4,4.9-22.7,2.2l-4.4-1.4L313.6,119.6z M267.6,119.7   c0.7-1.4,2-2.5,3.8-3.4c1.7-0.8,3.5-1.2,5.4-1.2c5.2,0,10.6,2.9,13.4,6.8l4,5.6c-1.4,0.5-3.2,1-5.4,1.7c-9,2.9-15.3,3-19.3,0.3   C266.5,127.5,265.7,123.2,267.6,119.7z"/>
</g>
</svg>
